<svg width="42" height="44" viewBox="0 0 42 44" fill="none" xmlns="http://www.w3.org/2000/svg">
<path d="M21 0.0990906C9.40187 0.0990906 0 9.72482 0 21.5991C0 33.4734 9.40187 43.0991 21 43.0991C32.5981 43.0991 42 33.4734 42 21.5991C42 9.72482 32.5981 0.0990906 21 0.0990906ZM29.5422 17.7112C29.5509 17.8948 29.5531 18.0785 29.5531 18.2576C29.5531 23.8566 25.3947 30.3088 17.7866 30.3088C15.5385 30.3127 13.3371 29.6516 11.4472 28.4052C11.7687 28.4455 12.0991 28.4612 12.4338 28.4612C14.3719 28.4612 16.1547 27.7871 17.57 26.6493C16.7075 26.632 15.8718 26.3396 15.1793 25.8129C14.4868 25.2862 13.9721 24.5514 13.7069 23.711C14.3263 23.8316 14.9644 23.8063 15.5728 23.6371C14.6367 23.4433 13.7948 22.924 13.19 22.1672C12.5852 21.4104 12.2546 20.4628 12.2544 19.4849V19.4334C12.8122 19.7492 13.4509 19.9418 14.1291 19.9642C13.2514 19.3661 12.6302 18.4473 12.3923 17.3957C12.1544 16.3441 12.3179 15.2392 12.8494 14.307C13.8883 15.6149 15.184 16.6849 16.6525 17.4476C18.121 18.2103 19.7295 18.6488 21.3741 18.7347C21.165 17.8261 21.255 16.8722 21.63 16.0214C22.0051 15.1706 22.6442 14.4705 23.448 14.0299C24.2518 13.5893 25.1752 13.4329 26.0748 13.5851C26.9743 13.7373 27.7996 14.1895 28.4222 14.8714C29.3479 14.6839 30.2356 14.3362 31.0472 13.8434C30.7387 14.8247 30.0927 15.6579 29.2294 16.1883C30.0494 16.0871 30.85 15.8614 31.605 15.5186C31.0504 16.3694 30.3519 17.1119 29.5422 17.7112Z" fill="#03784B"/>
</svg>
