<svg width="41" height="42" viewBox="0 0 41 42" fill="none" xmlns="http://www.w3.org/2000/svg">
<path d="M1.70418 18.4761C1.73016 18.3929 1.75398 18.3365 1.77195 18.3H39.228C39.246 18.3365 39.2698 18.3929 39.2958 18.4761C39.4538 18.982 39.5 19.8014 39.5 21C39.5 22.1986 39.4538 23.018 39.2958 23.5239C39.2698 23.6071 39.246 23.6635 39.228 23.7H1.77195C1.75398 23.6635 1.73016 23.6071 1.70418 23.5239C1.54622 23.018 1.5 22.1986 1.5 21C1.5 19.8014 1.54622 18.982 1.70418 18.4761ZM1.70418 35.2761C1.73016 35.1929 1.75398 35.1365 1.77196 35.1H39.228C39.246 35.1365 39.2698 35.1929 39.2958 35.2761C39.4538 35.782 39.5 36.6014 39.5 37.8C39.5 38.9986 39.4538 39.818 39.2958 40.3239C39.2698 40.4071 39.246 40.4635 39.228 40.5H1.77196C1.75398 40.4635 1.73016 40.4071 1.70418 40.3239C1.54622 39.818 1.5 38.9986 1.5 37.8C1.5 36.6014 1.54622 35.782 1.70418 35.2761ZM39.228 6.9H1.77195C1.75398 6.86351 1.73016 6.8071 1.70418 6.72388C1.54622 6.21804 1.5 5.39858 1.5 4.2C1.5 3.00141 1.54622 2.18196 1.70418 1.67612C1.73016 1.5929 1.75398 1.53649 1.77195 1.5H39.228C39.246 1.53649 39.2698 1.5929 39.2958 1.67612C39.4538 2.18196 39.5 3.00142 39.5 4.2C39.5 5.39858 39.4538 6.21804 39.2958 6.72388C39.2698 6.8071 39.246 6.86351 39.228 6.9Z" fill="#BDBDBD" stroke="#03784B" stroke-width="3"/>
</svg>
